<svg width="1600" height="1000" viewBox="0 0 1600 1000" fill="none" xmlns="http://www.w3.org/2000/svg">
  <rect width="1600" height="1000" fill="#07111F"/>
  <rect y="640" width="1600" height="360" fill="#0D1728"/>
  <rect x="110" y="540" width="180" height="160" rx="8" fill="#16253E"/>
  <rect x="320" y="470" width="230" height="230" rx="8" fill="#16253E"/>
  <rect x="590" y="510" width="200" height="190" rx="8" fill="#16253E"/>
  <rect x="840" y="430" width="260" height="270" rx="8" fill="#16253E"/>
  <rect x="1140" y="500" width="210" height="200" rx="8" fill="#16253E"/>
  <rect x="1380" y="420" width="140" height="280" rx="8" fill="#16253E"/>
  <rect x="145" y="600" width="90" height="60" rx="6" fill="#1C3457"/>
  <rect x="365" y="530" width="100" height="90" rx="6" fill="#1C3457"/>
  <rect x="630" y="565" width="80" height="70" rx="6" fill="#1C3457"/>
  <rect x="900" y="485" width="110" height="100" rx="6" fill="#1C3457"/>
  <rect x="1180" y="560" width="90" height="90" rx="6" fill="#1C3457"/>
  <path d="M1080 430L1165 350L1250 430H1080Z" fill="#233A59"/>
  <path d="M1060 410L1180 280L1300 410H1060Z" fill="#2D4D78"/>
  <circle cx="1240" cy="350" r="95" fill="#0C1A2E"/>
  <circle cx="1240" cy="350" r="56" fill="#173253"/>
  <rect x="640" y="276" width="140" height="150" rx="10" fill="#19304F"/>
  <rect x="670" y="210" width="80" height="80" rx="10" fill="#285C8E"/>
  <rect x="672" y="222" width="76" height="18" rx="9" fill="#EAF4FF"/>
  <rect x="862" y="240" width="140" height="130" rx="10" fill="#19304F"/>
  <rect x="900" y="182" width="66" height="70" rx="10" fill="#2F66A8"/>
  <path d="M340 725L390 695L440 725V792H340V725Z" fill="#203A5C"/>
  <path d="M1230 758L1285 725L1340 758V813H1230V758Z" fill="#203A5C"/>
  <rect x="360" y="730" width="100" height="112" rx="7" fill="#E3E8EF"/>
  <rect x="1248" y="772" width="90" height="92" rx="7" fill="#E3E8EF"/>
  <rect x="380" y="748" width="18" height="36" rx="4" fill="#2563EB"/>
  <rect x="410" y="748" width="18" height="36" rx="4" fill="#2563EB"/>
  <rect x="1274" y="790" width="16" height="34" rx="4" fill="#2563EB"/>
  <rect x="1298" y="790" width="16" height="34" rx="4" fill="#2563EB"/>
  <rect x="750" y="700" width="180" height="90" rx="12" fill="#0F1E33"/>
  <rect x="770" y="722" width="22" height="52" rx="5" fill="#2563EB"/>
  <rect x="802" y="722" width="22" height="52" rx="5" fill="#2563EB"/>
  <rect x="834" y="722" width="22" height="52" rx="5" fill="#2563EB"/>
  <rect x="866" y="722" width="22" height="52" rx="5" fill="#2563EB"/>
  <circle cx="360" cy="360" r="152" fill="url(#grad)" fill-opacity="0.35"/>
  <defs>
    <radialGradient id="grad" cx="0" cy="0" r="1" gradientUnits="userSpaceOnUse" gradientTransform="translate(360 360) rotate(90) scale(152)">
      <stop stop-color="#60A5FA"/>
      <stop offset="1" stop-color="#60A5FA" stop-opacity="0"/>
    </radialGradient>
  </defs>
</svg>
